<svg width="1200" height="630" viewBox="0 0 1200 630" fill="none" xmlns="http://www.w3.org/2000/svg">
  <defs>
    <linearGradient id="bg-gradient" x1="0%" y1="0%" x2="100%" y2="100%">
      <stop offset="0%" style="stop-color:#4B89BF"/>
      <stop offset="50%" style="stop-color:#5C99C7"/>
      <stop offset="100%" style="stop-color:#4DA6A6"/>
    </linearGradient>
  </defs>
  
  <!-- Background -->
  <rect width="1200" height="630" fill="url(#bg-gradient)"/>
  
  <!-- Pattern overlay -->
  <pattern id="pattern" width="60" height="60" patternUnits="userSpaceOnUse">
    <path d="M36 34v-4h-2v4h-4v2h4v4h2v-4h4v-2h-4zm0-30V0h-2v4h-4v2h4v4h2V6h4V4h-4zM6 34v-4H4v4H0v2h4v4h2v-4h4v-2H6zM6 4V0H4v4H0v2h4v4h2V6h4V4H6z" fill="white" fill-opacity="0.05"/>
  </pattern>
  <rect width="1200" height="630" fill="url(#pattern)"/>
  
  <!-- Logo text -->
  <text x="600" y="280" text-anchor="middle" font-family="Georgia, serif" font-size="72" font-weight="bold" fill="white">
    OncoAssist
  </text>
  
  <!-- Tagline -->
  <text x="600" y="350" text-anchor="middle" font-family="system-ui, sans-serif" font-size="28" fill="white" fill-opacity="0.9">
    Eventos Científicos em Oncologia
  </text>
  
  <!-- Subtitle -->
  <text x="600" y="420" text-anchor="middle" font-family="system-ui, sans-serif" font-size="20" fill="white" fill-opacity="0.7">
    Congressos, Simpósios e Workshops com os Melhores Especialistas
  </text>
  
  <!-- Bottom line -->
  <rect x="400" y="500" width="400" height="3" rx="1.5" fill="white" fill-opacity="0.3"/>
  
  <!-- Website -->
  <text x="600" y="550" text-anchor="middle" font-family="system-ui, sans-serif" font-size="18" fill="white" fill-opacity="0.6">
    oncoassist.com.br
  </text>
</svg>
